<?xml version="1.0" encoding="UTF-8"?>
<svg xmlns="http://www.w3.org/2000/svg" xmlns:xlink="http://www.w3.org/1999/xlink" viewBox="0 0 2592 1728">
  <defs>
    <style>
      .cls-1, .cls-2 {
        fill: #231f20;
      }

      .cls-3 {
        fill: none;
        stroke: #231f20;
        stroke-miterlimit: 10;
        stroke-width: 5px;
      }

      .cls-2 {
        font-family: MyriadPro-Regular, 'Myriad Pro';
        font-size: 12px;
      }

      .cls-4 {
        opacity: .7;
      }
    </style>
  </defs>
  <g id="Layer_1" data-name="Layer 1">
    <image class="cls-4" width="4320" height="2880" transform="scale(.6)" xlink:href="../Illustrator Maps/ConcB-A-123.png"/>
  </g>
  <g id="CB002">
    <g class="cls-4">
      <polygon class="cls-1" points="393.14 654.74 367.3 654.74 367.3 649.74 388.14 649.74 388.14 462.14 1429.19 462.14 1429.19 441.25 1434.19 441.25 1434.19 467.14 393.14 467.14 393.14 654.74"/>
    </g>
    <text class="cls-2" transform="translate(863.14 459.4)"><tspan x="0" y="0">CB002</tspan></text>
  </g>
  <g id="CB027">
    <text class="cls-2" transform="translate(1520.74 828.48)"><tspan x="0" y="0">CB027</tspan></text>
    <g class="cls-4">
      <polygon class="cls-1" points="1801.93 835.38 1796.93 835.38 1796.93 817.34 1381.8 817.34 1381.8 469.78 1436.64 469.78 1436.64 441.25 1441.64 441.25 1441.64 474.78 1386.8 474.78 1386.8 812.34 1801.93 812.34 1801.93 835.38"/>
    </g>
  </g>
  <g id="B205">
    <g class="cls-4">
      <polygon class="cls-1" points="1595.72 732.11 1590.72 732.11 1590.72 719.3 1600.72 719.3 1600.72 724.3 1595.72 724.3 1595.72 732.11"/>
      <path class="cls-1" d="M1632.6,724.3h-14.06v-5h14.06v5ZM1616.66,724.3h-14.06v-5h14.06v5Z"/>
      <polygon class="cls-1" points="1644.47 729.3 1639.47 729.3 1639.47 724.3 1634.47 724.3 1634.47 719.3 1644.47 719.3 1644.47 729.3"/>
      <path class="cls-1" d="M1644.47,812.28h-5v-14.64h5v14.64ZM1644.47,795.69h-5v-14.64h5v14.64ZM1644.47,779.09h-5v-14.64h5v14.64ZM1644.47,762.49h-5v-14.64h5v14.64ZM1644.47,745.89h-5v-14.64h5v14.64Z"/>
      <polygon class="cls-1" points="1649.47 824.23 1639.47 824.23 1639.47 814.23 1644.47 814.23 1644.47 819.23 1649.47 819.23 1649.47 824.23"/>
      <path class="cls-1" d="M1756.5,824.23h-15.74v-5h15.74v5ZM1738.66,824.23h-15.74v-5h15.74v5ZM1720.82,824.23h-15.74v-5h15.74v5ZM1702.99,824.23h-15.74v-5h15.74v5ZM1685.15,824.23h-15.74v-5h15.74v5ZM1667.31,824.23h-15.74v-5h15.74v5Z"/>
      <polygon class="cls-1" points="1768.6 832.42 1763.6 832.42 1763.6 824.23 1758.6 824.23 1758.6 819.23 1768.6 819.23 1768.6 832.42"/>
    </g>
    <text class="cls-2" transform="translate(1646.35 774.52)"><tspan x="0" y="0">B205</tspan></text>
  </g>
  <g id="B202">
    <g class="cls-4">
      <line class="cls-3" x1="1785.78" y1="840.67" x2="1780.78" y2="840.67"/>
      <polyline class="cls-3" points="1779.82 840.67 1774.82 840.67 1774.82 845.67"/>
      <line class="cls-3" x1="1774.82" y1="847.2" x2="1774.82" y2="852.2"/>
    </g>
    <text class="cls-2" transform="translate(1745.72 851.42)"><tspan x="0" y="0">B202</tspan></text>
    <g class="cls-4">
      <rect class="cls-1" x="1780.78" y="832.88" width="5" height="5"/>
      <rect class="cls-1" x="1774.62" y="832.88" width="5.13" height="5"/>
      <rect class="cls-1" x="1768.6" y="832.88" width="5" height="5"/>
    </g>
  </g>
  <g id="B200">
    <g class="cls-4">
      <polygon class="cls-1" points="1784.65 913.42 1768.6 913.42 1768.6 908.42 1779.65 908.42 1779.65 850.57 2189.21 850.57 2189.21 855.57 1784.65 855.57 1784.65 913.42"/>
    </g>
    <text class="cls-2" transform="translate(1944.34 847.1)"><tspan x="0" y="0">B200</tspan></text>
  </g>
  <g id="B204">
    <g class="cls-4">
      <polygon class="cls-1" points="2189.21 1109.35 1786.21 1109.35 1786.21 843.17 1791.21 843.17 1791.21 1104.35 2189.21 1104.35 2189.21 1109.35"/>
    </g>
    <text class="cls-2" transform="translate(1805.73 1099.96)"><tspan x="0" y="0">B204</tspan></text>
  </g>
</svg>